<?xml version="1.0" encoding="UTF-8" standalone="no"?>
<!-- Created with Inkscape (http://www.inkscape.org/) -->

<svg
   viewBox="0 0 200 200"
   xmlns:dc="http://purl.org/dc/elements/1.1/"
   xmlns:cc="http://creativecommons.org/ns#"
   xmlns:rdf="http://www.w3.org/1999/02/22-rdf-syntax-ns#"
   xmlns:svg="http://www.w3.org/2000/svg"
   xmlns="http://www.w3.org/2000/svg">
  <path
     d="m 115.46322,187.85499 c -1.30018,-0.52385 -2.85387,-1.86784 -3.45262,-2.98664 -0.59877,-1.11879 -1.58565,-10.38526 -2.19307,-20.59216 l -1.10441,-18.55799 -7.74834,-10.30849 c -4.261601,-5.66967 -8.083023,-10.3085 -8.492062,-10.3085 -0.409039,0 -1.646651,4.44788 -2.750247,9.88415 l -2.00654,9.88415 -15.13122,19.42789 c -8.322171,10.68533 -16.296732,19.95892 -17.721245,20.60798 -5.300941,2.41527 -13.246268,-3.71375 -11.878565,-9.16311 0.354745,-1.41341 6.932489,-10.50886 14.61721,-20.21211 l 13.972219,-17.64225 2.36594,-12.07433 c 5.85051,-29.857458 13.380719,-64.263183 14.891176,-68.038187 0.909478,-2.27301 2.880098,-5.097512 4.379157,-6.276672 3.380046,-2.658744 11.197307,-2.862685 15.251847,-0.397898 1.5797,0.960315 7.49813,8.310061 13.15206,16.332768 9.82388,13.9397 10.60387,14.750844 17.58399,18.286273 l 7.30412,3.699532 0,-10.293474 0,-10.293476 3.24627,0 3.24628,0 0,11.476752 c 0,10.953024 0.12344,11.573856 2.70523,13.604684 1.5838,1.245821 2.70523,3.23822 2.70523,4.806293 0,1.473095 -1.21736,3.806565 -2.70523,5.185485 l -2.70523,2.50712 0,39.64279 0,39.64279 -3.24628,0 -3.24627,0 0,-41.03601 0,-41.03603 -11.29204,-5.394087 c -9.8702,-4.714896 -11.79464,-6.093688 -15.28375,-10.950267 -2.19544,-3.055899 -4.10218,-5.413799 -4.2372,-5.239777 -0.13501,0.174022 -1.83956,7.972515 -3.78789,17.32998 l -3.54241,17.013591 8.68124,11.66184 8.68124,11.66186 0.68351,14.06719 c 0.37594,7.73696 0.96095,17.34318 1.30002,21.34715 0.59461,7.0214 0.50035,7.39612 -2.65392,10.5504 -3.36017,3.36017 -5.47002,3.84005 -9.5882,2.18079 z M 50.853076,105.54197 c -9.304676,-3.93798 -10.395449,-4.84675 -10.395449,-8.660874 0,-3.8405 16.870232,-50.730861 19.045606,-52.936759 1.228281,-1.245515 3.919281,-1.571728 11.566755,-1.402164 8.750532,0.194021 10.197045,0.505599 11.859738,2.554584 1.041514,1.283487 1.893661,3.000934 1.893661,3.816549 0,3.014501 -18.499779,56.113964 -20.207432,58.000904 -2.37288,2.622 -4.926955,2.36734 -13.762879,-1.37224 z M 104.25778,43.616746 C 94.655079,38.538717 91.763083,25.972188 98.242249,17.477571 108.82093,3.6081993 130.52096,10.402775 130.52096,27.584476 c 0,14.381106 -13.63998,22.707581 -26.26318,16.03227 z"/>
</svg>
