<?xml version="1.0" encoding="utf-8"?>
<!-- Generator: Adobe Illustrator 16.0.4, SVG Export Plug-In . SVG Version: 6.00 Build 0)  -->
<!DOCTYPE svg PUBLIC "-//W3C//DTD SVG 1.1//EN" "http://www.w3.org/Graphics/SVG/1.1/DTD/svg11.dtd">
<svg version="1.1" id="Layer_1" xmlns="http://www.w3.org/2000/svg" xmlns:xlink="http://www.w3.org/1999/xlink" x="0px" y="0px"
	 width="400px" height="400px" viewBox="0 0 400 400" enable-background="new 0 0 400 400" xml:space="preserve">
<path id="Blue_1_" fill="#FD7700" d="M377.431,399.807c12.159,0,22.017-9.857,22.017-22.016V22.927
	c0-12.161-9.857-22.016-22.017-22.016H22.569c-12.162,0-22.016,9.855-22.016,22.016v354.864c0,12.158,9.854,22.016,22.016,22.016
	H377.431z"/>
<g>
	<path fill="#FFFFFF" d="M191.952,330.889c-0.018-33.952-13.682-64.424-35.914-86.709l0,0
		c-22.282-22.23-52.757-35.907-86.723-35.914l0,0v-56.202c49.301-0.014,94.193,20.059,126.457,52.375l0,0
		c32.31,32.272,52.396,77.158,52.379,126.45l0,0H191.952L191.952,330.889z"/>
	<path fill="#FFFFFF" d="M275.855,330.895c-0.008-57.169-23.086-108.667-60.527-146.154l0,0
		c-37.493-37.459-88.997-60.524-146.172-60.545l0,0V68c145.214,0.014,262.885,117.68,262.908,262.889l0,0h-56.209V330.895z"/>
	<path fill="#FFFFFF" d="M146.441,292.169c0-21.38-17.335-38.705-38.716-38.705C86.34,253.464,69,270.789,69,292.169
		c0,21.396,17.34,38.726,38.726,38.726C129.106,330.895,146.441,313.564,146.441,292.169z"/>
</g>
</svg>
